<svg xmlns="http://www.w3.org/2000/svg" width="52.848" height="40.634" viewBox="0 0 67.848 54.634">
  <g id="crown_1_" data-name="crown (1)" transform="translate(0 -61.035)">
    <g id="Group_2" data-name="Group 2" transform="translate(9.093 69.44)">
      <g id="Group_1" data-name="Group 1" transform="translate(0 0)">
        <path id="Path_6" data-name="Path 6" d="M68.7,138.25l2.938-15.532a1.956,1.956,0,0,1,3.539-.849l8.7,12.268c1.381,1.947-.327,2.4-6.052,9.867C70.238,140.071,68.2,140.843,68.7,138.25Z" transform="translate(-68.626 -121.03)" fill="#fff"/>
      </g>
    </g>
    <g id="Group_4" data-name="Group 4" transform="translate(43.051 69.44)">
      <g id="Group_3" data-name="Group 3" transform="translate(0 0)">
        <path id="Path_7" data-name="Path 7" d="M331.556,144c-5.757-7.3-7.6-7.869-6.185-9.867l8.7-12.268a1.956,1.956,0,0,1,3.539.849l2.938,15.532C341.062,140.953,338.6,140.27,331.556,144Z" transform="translate(-324.916 -121.03)" fill="#f8f8f8"/>
      </g>
    </g>
    <g id="Group_6" data-name="Group 6" transform="translate(0 61.035)">
      <g id="Group_5" data-name="Group 5" transform="translate(0)">
        <path id="Path_8" data-name="Path 8" d="M64.671,78.259,50.437,89.453,35.649,62.093a1.936,1.936,0,0,0-3.45,0L17.41,89.453,3.177,78.259A2.012,2.012,0,0,0,.065,80.464l5.433,22.6,3.6,2.288-2.586,1.915,1.64,6.822a2.012,2.012,0,0,0,1.927,1.583h47.7a2.012,2.012,0,0,0,1.927-1.583l1.64-6.822-1.579-2.1,2.589-2.1,5.433-22.6A2.012,2.012,0,0,0,64.671,78.259Z" transform="translate(0 -61.035)" fill="#20cf7d"/>
      </g>
    </g>
    <path id="Path_9" data-name="Path 9" d="M289.9,80.464l-5.433,22.6-2.589,2.1,1.579,2.1-1.64,6.822a2.012,2.012,0,0,1-1.927,1.583H256.039V61.035a1.947,1.947,0,0,1,1.724,1.058l14.788,27.36,14.233-11.193A2.012,2.012,0,0,1,289.9,80.464Z" transform="translate(-222.114 0)" fill="#1ca565"/>
    <g id="Group_8" data-name="Group 8" transform="translate(25.974 82.047)">
      <g id="Group_7" data-name="Group 7" transform="translate(0 0)">
        <path id="Path_10" data-name="Path 10" d="M211.648,222.552l-5.963-10.507a1.933,1.933,0,0,0-3.408,0l-5.963,10.507a2.206,2.206,0,0,0,0,2.163l5.963,10.507a1.933,1.933,0,0,0,3.408,0l5.963-10.507A2.207,2.207,0,0,0,211.648,222.552Z" transform="translate(-196.031 -211.025)" fill="#4dff7c"/>
      </g>
    </g>
    <path id="Path_11" data-name="Path 11" d="M263.7,224.715l-5.963,10.507a1.955,1.955,0,0,1-1.7,1.02V211.025a1.947,1.947,0,0,1,1.7,1.02l5.963,10.507A2.207,2.207,0,0,1,263.7,224.715Z" transform="translate(-222.114 -128.978)" fill="#2cd157"/>
    <g id="Group_9" data-name="Group 9" transform="translate(5.497 103.061)">
      <path id="Path_12" data-name="Path 12" d="M56,363.126a2.048,2.048,0,0,1-1.988,2.1H42.5l-1.01-4.2H54.016A2.048,2.048,0,0,1,56,363.126Z" transform="translate(-41.489 -361.025)" fill="#fff"/>
    </g>
    <g id="Group_10" data-name="Group 10" transform="translate(47.836 103.061)">
      <path id="Path_13" data-name="Path 13" d="M375.543,361.025l-1.01,4.2H363.017a2.1,2.1,0,0,1,0-4.2Z" transform="translate(-361.029 -361.025)" fill="#cfcfcf"/>
    </g>
  </g>
</svg>
