<svg id="brands-and-logotypes" xmlns="http://www.w3.org/2000/svg" width="40" height="40" viewBox="0 0 61.951 61.245">
  <path id="Path_20" data-name="Path 20" d="M14.52,118.85a16.029,16.029,0,0,1,2.315-8.311V100.215H6.391a30.361,30.361,0,0,0,0,37.27H16.835V127.16A16.029,16.029,0,0,1,14.52,118.85Z" transform="translate(0 -88.227)" fill="#fbbd00"/>
  <path id="Path_21" data-name="Path 21" d="M203.26,375.238,196,382.416l7.26,7.177a30.971,30.971,0,0,0,18.85-6.319V372.961H211.678A16.6,16.6,0,0,1,203.26,375.238Z" transform="translate(-172.284 -328.348)" fill="#0f9d58"/>
  <path id="Path_22" data-name="Path 22" d="M63.266,325.477,52.823,335.8a31.063,31.063,0,0,0,24.584,11.988V333.434A16.5,16.5,0,0,1,63.266,325.477Z" transform="translate(-46.432 -286.544)" fill="#31aa52"/>
  <path id="Path_23" data-name="Path 23" d="M286.976,204.343a30.546,30.546,0,0,0-.507-5.548l-.272-1.471H256v14.354h14.7a16.27,16.27,0,0,1-6.278,6.655l10.432,10.313A31.363,31.363,0,0,0,277.9,226,30.248,30.248,0,0,0,286.976,204.343Z" transform="translate(-225.024 -173.72)" fill="#3c79e6"/>
  <path id="Path_24" data-name="Path 24" d="M214.9,19.119l1.283,1.269,10.267-10.15-1.283-1.269A30.954,30.954,0,0,0,203.26,0L196,7.177l7.26,7.177A16.445,16.445,0,0,1,214.9,19.119Z" transform="translate(-172.284)" fill="#cf2d48"/>
  <path id="Path_25" data-name="Path 25" d="M77.406,14.354V0A31.063,31.063,0,0,0,52.822,11.988L63.265,22.312a16.5,16.5,0,0,1,14.141-7.957Z" transform="translate(-46.431 0)" fill="#eb4132"/>
</svg>
