<svg id="bag" xmlns="http://www.w3.org/2000/svg" width="32.529" height="30.773" viewBox="0 0 32.529 30.773">
  <g id="Group_12" data-name="Group 12">
    <g id="Group_11" data-name="Group 11">
      <path id="Path_14" data-name="Path 14" d="M.209,14.486a.739.739,0,0,1,.6-.194h8.63V10.615a6.705,6.705,0,0,1,6.823-6.58,6.705,6.705,0,0,1,6.823,6.58v3.677h8.63c.241,0,.482,0,.6.194a.644.644,0,0,1,.2.581L29.51,30.938a4.849,4.849,0,0,1-4.736,3.871H7.755A4.886,4.886,0,0,1,3.019,30.9L.009,15.067A.644.644,0,0,1,.209,14.486Zm21.273-3.871a5.128,5.128,0,0,0-5.218-5.032,5.128,5.128,0,0,0-5.218,5.032v3.677H21.482ZM4.624,30.705A3.18,3.18,0,0,0,7.755,33.26H24.774A3.18,3.18,0,0,0,27.9,30.705l2.85-14.864H1.775Z" transform="translate(0 -4.035)" fill="#413f3f"/>
      <path id="Path_15" data-name="Path 15" d="M280.43,216.885a.789.789,0,0,1-.8-.774v-2.323a.8.8,0,0,1,1.605,0v2.323A.789.789,0,0,1,280.43,216.885Z" transform="translate(-270.186 -197.531)" fill="#413f3f"/>
      <path id="Path_16" data-name="Path 16" d="M123.695,216.885a.789.789,0,0,1-.8-.774v-2.323a.8.8,0,0,1,1.606,0v2.323A.789.789,0,0,1,123.695,216.885Z" transform="translate(-101.409 -197.531)" fill="#413f3f"/>
    </g>
  </g>
</svg>
